HIERARCHY
ROOT joint_Root
{
	OFFSET 0.0 0.0 0.0
	CHANNELS 6 Xposition Yposition Zposition Zrotation Xrotation Yrotation 
	JOINT Hips
	{
		OFFSET 4.5925 91.4895 -427.239
		CHANNELS 6 Xposition Yposition Zposition Zrotation Xrotation Yrotation 
		JOINT Spine
		{
			OFFSET 15.7357 0.0 0.0
			CHANNELS 6 Xposition Yposition Zposition Zrotation Xrotation Yrotation 
			JOINT Chest
			{
				OFFSET 8.98455 -0.406207 0.0
				CHANNELS 6 Xposition Yposition Zposition Zrotation Xrotation Yrotation 
				JOINT Neck
				{
					OFFSET 16.3773 0.0 0.0
					CHANNELS 6 Xposition Yposition Zposition Zrotation Xrotation Yrotation 
					JOINT Head
					{
						OFFSET 6.45672 0.0 0.0
						CHANNELS 6 Xposition Yposition Zposition Zrotation Xrotation Yrotation 
						End Site
						{
							OFFSET 0.0 0.0 0.0
						}
					}
				}
				JOINT Shoulder_L
				{
					OFFSET 12.9942 -0.242716 4.98039
					CHANNELS 6 Xposition Yposition Zposition Zrotation Xrotation Yrotation 
					JOINT UpperArm_L
					{
						OFFSET 5.34809 0.0 0.0
						CHANNELS 6 Xposition Yposition Zposition Zrotation Xrotation Yrotation 
						JOINT LowerArm_L
						{
							OFFSET 24.3286 1.87007e-05 0.0
							CHANNELS 6 Xposition Yposition Zposition Zrotation Xrotation Yrotation 
							JOINT Hand_L
							{
								OFFSET 22.2916 0.0 0.0
								CHANNELS 6 Xposition Yposition Zposition Zrotation Xrotation Yrotation 
								End Site
								{
									OFFSET 0.0 0.0 0.0
								}
							}
						}
					}
				}
				JOINT Shoulder_R
				{
					OFFSET 12.9945 -0.242716 -4.98039
					CHANNELS 6 Xposition Yposition Zposition Zrotation Xrotation Yrotation 
					JOINT UpperArm_R
					{
						OFFSET -5.34813 0.0 0.0
						CHANNELS 6 Xposition Yposition Zposition Zrotation Xrotation Yrotation 
						JOINT LowerArm_R
						{
							OFFSET -24.3289 0.000322201 0.0
							CHANNELS 6 Xposition Yposition Zposition Zrotation Xrotation Yrotation 
							JOINT Hand_R
							{
								OFFSET -22.2915 -0.000108084 0.0
								CHANNELS 6 Xposition Yposition Zposition Zrotation Xrotation Yrotation 
								End Site
								{
									OFFSET 0.0 0.0 0.0
								}
							}
						}
					}
				}
			}
		}
		JOINT UpperLeg_L
		{
			OFFSET -2.19248 -6.46944 0.0
			CHANNELS 6 Xposition Yposition Zposition Zrotation Xrotation Yrotation 
			JOINT LowerLeg_L
			{
				OFFSET 39.0811 0.0 -1.23785e-05
				CHANNELS 6 Xposition Yposition Zposition Zrotation Xrotation Yrotation 
				JOINT Foot_L
				{
					OFFSET 40.9854 0.0 -1.26872e-05
					CHANNELS 6 Xposition Yposition Zposition Zrotation Xrotation Yrotation 
					JOINT Toes_L
					{
						OFFSET 11.7543 0.0 0.0
						CHANNELS 6 Xposition Yposition Zposition Zrotation Xrotation Yrotation 
						End Site
						{
							OFFSET 0.0 0.0 0.0
						}
					}
				}
			}
		}
		JOINT UpperLeg_R
		{
			OFFSET -2.19251 6.46944 0.0
			CHANNELS 6 Xposition Yposition Zposition Zrotation Xrotation Yrotation 
			JOINT LowerLeg_R
			{
				OFFSET -39.0811 -0.00228153 -0.0401928
				CHANNELS 6 Xposition Yposition Zposition Zrotation Xrotation Yrotation 
				JOINT Foot_R
				{
					OFFSET -40.9854 0.0 0.0
					CHANNELS 6 Xposition Yposition Zposition Zrotation Xrotation Yrotation 
					JOINT Toes_R
					{
						OFFSET -11.7543 0.0 0.0
						CHANNELS 6 Xposition Yposition Zposition Zrotation Xrotation Yrotation 
						End Site
						{
							OFFSET 0.0 0.0 0.0
						}
					}
				}
			}
		}
	}
}
MOTION
Frames:	5
Frame Time:	0.0333333
0.000000 0.000000 0.000000 0.000000 0.000000 -0.000000 8.332780 89.755200 -1.761180 92.414200 -10.144500 14.706600 15.735700 0.000005 -0.000001 90.637600 81.198900 -93.271800 8.984550 -0.406207 -0.000000 9.844040 0.146852 -5.277300 16.377300 -0.000001 -0.000001 25.952600 -5.517650 -2.788510 6.456720 -0.000001 -0.000000 17.995600 -8.147790 -9.110680 12.994200 -0.242716 4.980390 -91.857300 5.683030 -71.867800 5.348090 -0.000007 -0.000001 -60.692100 20.952700 -10.252800 24.328600 0.000019 0.000005 6.529010 26.914100 -14.189400 22.291600 -0.000001 0.000005 10.183200 5.187890 3.021290 12.994500 -0.242716 -4.980390 88.627300 7.558540 -79.675300 -5.348130 -0.000001 -0.000004 -69.304500 30.698500 -8.053760 -24.328900 0.000322 -0.000009 1.359160 4.614250 -16.446100 -22.291500 -0.000108 -0.000004 12.860300 5.368650 -1.944420 -2.192480 -6.469440 -0.000000 177.862000 -19.961100 2.277360 39.081100 -0.000007 -0.000012 0.020232 -0.031156 32.996900 40.985400 -0.000006 -0.000013 5.218960 -1.383620 -72.053300 11.754300 -0.000000 0.000003 -0.000138 -0.001355 -16.629200 -2.192510 6.469440 -0.000001 166.234000 10.905500 179.277000 -39.081100 -0.002282 -0.040193 -0.008073 0.016008 35.368800 -40.985400 0.000008 0.000006 0.470187 11.503500 -70.112800 -11.754300 -0.000006 -0.000006 -0.005334 -0.064659 -19.204200
0.000000 0.000000 0.000000 0.000000 0.000000 -0.000000 8.305140 89.750200 -1.759420 92.466600 -10.013500 14.794300 15.735700 0.000005 -0.000001 90.569500 81.282600 -93.178400 8.984550 -0.406207 -0.000000 9.676320 0.128707 -5.224730 16.377300 -0.000001 -0.000001 26.100100 -5.549810 -2.607180 6.456720 -0.000001 -0.000000 18.016000 -8.171040 -8.997530 12.994200 -0.242716 4.980390 -91.859700 5.711800 -71.931700 5.348090 -0.000007 -0.000001 -60.639700 22.270500 -12.244100 24.328600 0.000019 0.000005 7.010020 25.609200 -15.880200 22.291600 -0.000001 0.000005 10.410900 5.204970 2.594330 12.994500 -0.242716 -4.980390 88.627900 7.488570 -79.586200 -5.348130 -0.000001 -0.000004 -68.800100 33.018200 -10.192700 -24.328900 0.000322 -0.000009 1.389420 4.104060 -18.733900 -22.291500 -0.000108 -0.000004 13.039800 5.384300 -2.434420 -2.192480 -6.469440 -0.000000 177.826000 -19.832500 2.354350 39.081100 -0.000007 -0.000012 0.017060 -0.026262 33.006900 40.985400 -0.000006 -0.000013 5.194830 -1.396720 -72.045500 11.754300 -0.000000 0.000003 -0.000147 -0.001430 -16.631900 -2.192510 6.469440 -0.000001 166.140000 10.999400 179.375000 -39.081100 -0.002282 -0.040193 -0.012551 0.022277 35.416200 -40.985400 0.000008 0.000006 0.424299 11.499400 -70.140100 -11.754300 -0.000006 -0.000006 -0.005456 -0.065810 -19.251100
0.000000 0.000000 0.000000 0.000000 0.000000 -0.000000 8.258050 89.742400 -1.769380 92.455200 -9.871830 14.839000 15.735700 0.000005 -0.000001 90.457200 81.407900 -93.028200 8.984550 -0.406207 -0.000000 9.425040 0.099036 -5.146110 16.377300 -0.000001 -0.000001 26.286300 -5.555100 -2.299790 6.456720 -0.000001 -0.000000 18.113500 -8.188830 -8.880780 12.994200 -0.242716 4.980390 -91.840900 5.673510 -71.989900 5.348090 -0.000007 -0.000001 -60.772700 23.510100 -14.258700 24.328600 0.000019 0.000005 7.433850 24.423400 -17.513900 22.291600 -0.000001 0.000005 10.473000 5.230660 1.937590 12.994500 -0.242716 -4.980390 88.637400 7.403690 -79.541300 -5.348130 -0.000001 -0.000004 -68.100600 35.179100 -12.327700 -24.328900 0.000322 -0.000009 1.466040 3.775220 -21.256500 -22.291500 -0.000108 -0.000004 13.202400 5.388180 -2.556490 -2.192480 -6.469440 -0.000000 177.884000 -19.792000 2.373590 39.081100 -0.000007 -0.000012 0.017404 -0.026719 33.078200 40.985400 -0.000006 -0.000013 5.196040 -1.293690 -72.069100 11.754300 -0.000000 0.000003 -0.000138 -0.001349 -16.629000 -2.192510 6.469440 -0.000001 166.148000 11.031800 179.445000 -39.081100 -0.002282 -0.040193 -0.013972 0.024238 35.457100 -40.985400 0.000008 0.000006 0.416105 11.440400 -70.183400 -11.754300 -0.000006 -0.000006 -0.005355 -0.064863 -19.212400
0.000000 0.000000 0.000000 0.000000 0.000000 -0.000000 8.224560 89.743000 -1.723130 92.462200 -9.713000 14.891800 15.735700 0.000005 -0.000001 90.449500 81.541200 -92.988000 8.984550 -0.406207 -0.000000 9.158350 0.101084 -5.080710 16.377300 -0.000001 -0.000001 26.508400 -5.572290 -1.958420 6.456720 -0.000001 -0.000000 18.216700 -8.254460 -8.574490 12.994200 -0.242716 4.980390 -91.843500 5.672580 -71.963100 5.348090 -0.000007 -0.000001 -61.116500 24.132900 -16.410100 24.328600 0.000019 0.000005 7.742150 23.568500 -18.778900 22.291600 -0.000001 0.000005 10.200000 5.265940 1.006950 12.994500 -0.242716 -4.980390 88.669200 7.201800 -79.501600 -5.348130 -0.000001 -0.000004 -67.507100 36.678800 -14.343100 -24.328900 0.000322 -0.000009 1.734830 3.980020 -23.586900 -22.291500 -0.000108 -0.000004 13.305700 5.403950 -3.066640 -2.192480 -6.469440 -0.000000 177.886000 -19.632500 2.464240 39.081100 -0.000007 -0.000012 0.017224 -0.026449 33.071100 40.985400 -0.000006 -0.000013 5.176490 -1.267960 -72.083100 11.754300 -0.000000 0.000003 -0.000148 -0.001435 -16.632100 -2.192510 6.469440 -0.000001 166.093000 11.165500 179.588000 -39.081100 -0.002282 -0.040193 -0.012044 0.021530 35.458100 -40.985400 0.000008 0.000006 0.450895 11.417700 -70.244100 -11.754300 -0.000006 -0.000006 -0.005393 -0.065223 -19.227200
0.000000 0.000000 0.000000 0.000000 0.000000 -0.000000 8.181980 89.744500 -1.687680 92.453000 -9.503610 14.927800 15.735700 0.000005 -0.000001 90.630400 81.683000 -93.133600 8.984550 -0.406207 -0.000000 8.875470 0.157746 -5.014240 16.377300 -0.000001 -0.000001 26.720400 -5.622650 -1.554470 6.456720 -0.000001 -0.000000 18.388300 -8.391630 -8.176910 12.994200 -0.242716 4.980390 -91.803900 5.558900 -71.989500 5.348090 -0.000007 -0.000001 -61.548500 24.663300 -18.740700 24.328600 0.000019 0.000005 7.998690 23.059900 -19.735100 22.291600 -0.000001 0.000005 9.632390 5.270100 0.895693 12.994500 -0.242716 -4.980390 88.698300 7.013090 -79.457400 -5.348130 -0.000001 -0.000004 -66.920900 37.364500 -16.068900 -24.328900 0.000322 -0.000009 1.989930 4.087490 -25.999700 -22.291500 -0.000108 -0.000004 13.079500 5.410000 -3.265370 -2.192480 -6.469440 -0.000000 177.916000 -19.519400 2.541690 39.081100 -0.000007 -0.000012 0.015629 -0.024000 33.071100 40.985400 -0.000006 -0.000013 5.171140 -1.195950 -72.101900 11.754300 -0.000000 0.000003 -0.000143 -0.001393 -16.630600 -2.192510 6.469440 -0.000001 166.075000 11.308300 179.720000 -39.081100 -0.002282 -0.040193 -0.006345 0.013523 35.468900 -40.985400 0.000008 0.000006 0.535179 11.323300 -70.322000 -11.754300 -0.000006 -0.000006 -0.005427 -0.065543 -19.240200
